<svg width="352" height="113" viewBox="0 0 352 113" fill="none" xmlns="http://www.w3.org/2000/svg">
<path d="M50.1077 29.3371V39.539C45.5084 32.1841 38.3675 27.6763 29.5321 27.6763C10.6509 27.6763 0 41.5556 0 60.18C0 78.923 10.7719 93.2768 29.7741 93.2768C38.6095 93.2768 45.6294 88.769 50.1077 81.4142V91.6161H64.8737V29.3371H50.1077ZM32.6789 80.9397C21.907 80.9397 15.7343 71.0937 15.7343 60.18C15.7343 49.5036 21.7859 40.1321 32.921 40.1321C42.1195 40.1321 49.9866 46.6566 49.9866 59.9428C49.9866 72.9917 42.4826 80.9397 32.6789 80.9397Z" fill="#008C44"/>
<path d="M77.5889 29.343V91.622H93.3232V29.343H77.5889Z" fill="#008C44"/>
<path d="M122.324 44.7621V29.3406H106.59V91.6196H122.324V56.0316C122.324 46.8974 128.739 43.22 134.791 43.22C138.3 43.22 141.931 44.169 143.868 44.8807V28.273C133.58 28.273 125.108 34.323 122.324 44.7621Z" fill="#008C44"/>
<path d="M147.716 48.3216C147.716 67.6577 161.272 81.4184 180.758 81.4184C200.365 81.4184 213.801 67.6577 213.801 48.3216C213.801 29.3413 200.365 15.8179 180.758 15.8179C161.272 15.8179 147.716 29.3413 147.716 48.3216ZM198.066 48.3216C198.066 60.4215 191.409 69.0812 180.758 69.0812C169.986 69.0812 163.45 60.4215 163.45 48.3216C163.45 36.6962 169.986 28.2737 180.758 28.2737C191.409 28.2737 198.066 36.6962 198.066 48.3216Z" fill="#008C44"/>
<path d="M257.676 27.6763C248.478 27.6763 240.974 33.0145 236.979 41.5556V29.3371H221.245V112.376H236.979V80.4652C241.458 88.1759 249.809 93.2768 258.644 93.2768C275.831 93.2768 287.813 80.1093 287.813 61.2476C287.813 41.437 275.347 27.6763 257.676 27.6763ZM254.892 81.6514C244.362 81.6514 236.979 72.9917 236.979 60.6545C236.979 47.9615 244.362 39.0645 254.892 39.0645C264.938 39.0645 272.079 48.1987 272.079 61.129C272.079 73.2289 264.938 81.6514 254.892 81.6514Z" fill="#008C44"/>
<path d="M292.853 70.026C292.853 81.2955 303.019 93.2768 323.353 93.2768C343.807 93.2768 351.19 81.5328 351.19 72.3985C351.19 58.4006 334.367 55.9095 323.111 53.7742C315.486 52.4693 310.644 51.4016 310.644 47.1311C310.644 42.2674 316.091 39.1831 321.9 39.1831C329.768 39.1831 332.793 44.5213 333.035 50.2154H348.77C348.77 40.9625 342.113 27.6763 321.537 27.6763C303.746 27.6763 294.91 37.5223 294.91 48.0801C294.91 63.1457 311.976 64.6878 323.232 66.8231C329.768 68.0094 335.456 69.4329 335.456 74.0593C335.456 78.6858 329.889 81.77 323.958 81.77C318.391 81.77 308.587 78.6858 308.587 70.026H292.853Z" fill="#008C44"/>
<path d="M85.7216 21.7483C79.2615 21.7483 74.627 17.2059 74.627 11.0118C74.627 4.8177 79.2615 5.99695e-05 85.7216 5.99695e-05C91.901 5.99695e-05 96.8163 4.8177 96.8163 11.0118C96.8163 17.2059 91.901 21.7483 85.7216 21.7483Z" fill="#008C44"/>
</svg>
