<svg width="249" height="80" viewBox="0 0 249 80" fill="none" xmlns="http://www.w3.org/2000/svg">
<path d="M36.5047 21.065V28.2367C33.2795 23.0664 28.272 19.8975 22.0762 19.8975C8.83602 19.8975 1.36719 29.6544 1.36719 42.7471C1.36719 55.9231 8.9209 66.0136 22.246 66.0136C28.4417 66.0136 33.3644 62.8447 36.5047 57.6743V64.8461H46.8592V21.065H36.5047ZM24.2829 57.3408C16.7292 57.3408 12.4007 50.4192 12.4007 42.7471C12.4007 35.2417 16.6443 28.6537 24.4527 28.6537C30.903 28.6537 36.4198 33.2403 36.4198 42.5803C36.4198 51.7535 31.1577 57.3408 24.2829 57.3408Z" fill="#000D05"/>
<path d="M55.7695 21.0674V64.8486H66.803V21.0674H55.7695Z" fill="#000D05"/>
<path d="M87.1468 31.9051V21.064H76.1133V64.8452H87.1468V39.8274C87.1468 33.4061 91.6451 30.821 95.8887 30.821C98.35 30.821 100.896 31.4881 102.254 31.9885V20.3135C95.04 20.3135 89.0989 24.5665 87.1468 31.9051Z" fill="#000D05"/>
<path d="M104.941 34.4101C104.941 48.0031 114.447 57.6767 128.112 57.6767C141.861 57.6767 151.283 48.0031 151.283 34.4101C151.283 21.0673 141.861 11.5605 128.112 11.5605C114.447 11.5605 104.941 21.0673 104.941 34.4101ZM140.249 34.4101C140.249 42.9162 135.581 49.0039 128.112 49.0039C120.558 49.0039 115.975 42.9162 115.975 34.4101C115.975 26.2377 120.558 20.3168 128.112 20.3168C135.581 20.3168 140.249 26.2377 140.249 34.4101Z" fill="#000D05"/>
<path d="M182.066 19.8975C175.616 19.8975 170.354 23.6501 167.553 29.6544V21.065H156.52V79.4398H167.553V57.0072C170.693 62.4277 176.55 66.0136 182.745 66.0136C194.797 66.0136 203.2 56.757 203.2 43.4976C203.2 29.571 194.458 19.8975 182.066 19.8975ZM180.114 57.8411C172.73 57.8411 167.553 51.7535 167.553 43.0806C167.553 34.1576 172.73 27.9032 180.114 27.9032C187.159 27.9032 192.166 34.3244 192.166 43.4142C192.166 51.9203 187.159 57.8411 180.114 57.8411Z" fill="#000D05"/>
<path d="M206.723 49.6686C206.723 57.5909 213.852 66.0136 228.111 66.0136C242.454 66.0136 247.632 57.7577 247.632 51.3365C247.632 41.4962 235.834 39.7449 227.941 38.2439C222.594 37.3265 219.199 36.576 219.199 33.5739C219.199 30.1548 223.018 27.9865 227.092 27.9865C232.609 27.9865 234.731 31.7392 234.901 35.7421H245.934C245.934 29.2374 241.266 19.8975 226.838 19.8975C214.361 19.8975 208.165 26.8191 208.165 34.241C208.165 44.8319 220.133 45.916 228.026 47.417C232.609 48.251 236.598 49.2517 236.598 52.504C236.598 55.7563 232.694 57.9245 228.535 57.9245C224.631 57.9245 217.756 55.7563 217.756 49.6686H206.723Z" fill="#000D05"/>
<path d="M61.4871 15.7281C56.957 15.7281 53.707 12.5349 53.707 8.18055C53.707 3.82618 56.957 0.439453 61.4871 0.439453C65.8203 0.439453 69.2671 3.82618 69.2671 8.18055C69.2671 12.5349 65.8203 15.7281 61.4871 15.7281Z" fill="#000D05"/>
</svg>
