<svg width="1179" height="291" viewBox="0 0 1179 291" fill="none" xmlns="http://www.w3.org/2000/svg">
<path d="M1051 241.268V103.674H1084.41V124.883C1093.42 110.832 1109.06 101.553 1128.42 101.553C1158.11 101.553 1178.26 121.172 1178.26 151.129V241.268H1145.12V158.818C1145.12 142.646 1134.78 131.246 1118.61 131.246C1096.87 131.246 1084.41 149.804 1084.41 180.822V241.268H1051Z" fill="#002910"/>
<path d="M849.433 241.268V103.674H882.838V241.268H849.433ZM848.108 83.7903V48.7952H884.428V83.7903H848.108Z" fill="#002910"/>
<path d="M699.641 290.845V103.674H733.045V119.846C740.468 108.976 755.845 101.553 773.873 101.553C813.11 101.553 838.295 130.716 838.295 172.339C838.295 214.227 811.519 243.389 771.487 243.389C755.315 243.389 740.733 237.026 733.045 227.217V290.845H699.641ZM767.775 214.492C789.249 214.492 804.096 197.79 804.096 172.339C804.096 147.153 789.249 130.451 767.775 130.451C745.77 130.451 730.924 147.153 730.924 172.339C730.924 197.79 745.77 214.492 767.775 214.492Z" fill="#002910"/>
<path d="M476.219 241.268V103.674H509.624V125.148C517.047 111.097 530.302 101.553 549.391 101.553C571.13 101.553 586.241 110.832 592.339 127.534C599.762 113.218 616.199 101.553 637.939 101.553C667.366 101.553 686.72 120.641 686.72 147.948V241.268H653.315V157.227C653.315 140.525 644.036 129.92 628.13 129.92C608.776 129.92 598.172 146.622 598.172 171.278V241.268H564.767V157.227C564.767 140.525 555.488 129.92 539.581 129.92C520.493 129.92 509.624 146.888 509.624 171.543V241.268H476.219Z" fill="#002910"/>
<path d="M381.569 243.389C353.732 243.389 333.584 226.687 333.584 203.622C333.584 179.497 351.081 164.65 381.569 160.674L409.141 156.962C416.564 155.901 420.276 152.19 420.276 146.092C420.276 136.018 410.467 127.534 394.295 127.534C379.183 127.534 367.783 135.488 366.723 149.539H334.379C337.56 120.111 359.83 101.553 394.295 101.553C430.615 101.553 453.68 122.232 453.68 154.841V203.357C453.68 211.045 456.597 214.492 462.429 214.492C464.02 214.492 465.611 214.227 466.671 213.961V241.268C463.49 242.064 457.392 242.859 450.764 242.859C436.713 242.859 426.374 236.231 424.783 223.24C418.685 235.436 401.983 243.389 381.569 243.389ZM387.137 217.938C408.611 217.938 421.071 202.562 421.071 181.883V177.906L387.137 183.473C373.616 185.594 366.988 191.957 366.988 202.031C366.988 211.31 374.942 217.938 387.137 217.938Z" fill="#002910"/>
<path d="M193.355 241.268V48H226.759V124.883C235.773 110.567 251.415 101.553 270.768 101.553C300.726 101.553 320.875 121.171 320.875 151.129V241.268H287.47V159.083C287.47 142.646 277.131 131.246 260.959 131.246C239.22 131.246 226.759 149.804 226.759 181.087V241.268H193.355Z" fill="#002910"/>
<path d="M94.9108 243.389C44.5392 243.389 0 210.515 0 145.562C0 80.8741 45.0694 47.9999 94.9108 47.9999C140.245 47.9999 174.975 72.9206 180.278 116.664H142.631C138.655 94.1298 119.301 79.0183 94.6457 79.0183C61.7716 79.0183 36.3206 102.613 36.3206 145.562C36.3206 188.775 61.5065 212.106 94.6457 212.106C119.832 212.106 138.39 198.32 142.631 174.194H180.543C173.65 220.324 138.124 243.389 94.9108 243.389Z" fill="#002910"/>
<path d="M935.794 103.942C931.98 106.315 927.899 109.524 926.94 114.507C931.607 114.061 936.156 111.944 940.067 109.592C944.005 107.225 948.133 104.681 950.899 100.82C945.681 99.9018 939.993 101.33 935.794 103.942Z" fill="#002910"/>
<path d="M919.779 121.668C922.706 118.712 926.998 116.92 930.797 116.897C934.324 116.877 938.836 117.232 941.468 120.491C938.14 122.909 933.847 124.27 929.947 124.583C926.441 124.865 922.04 125.137 918.888 122.74C915.321 120.421 915.193 115.768 915.468 112.416C915.844 107.783 919.227 102.898 923.43 100.085C926.154 103.001 925.302 107.614 924.676 110.866C923.965 114.57 922.224 118.481 919.779 121.668Z" fill="#002910"/>
<path d="M920.213 128.049C916.639 128.755 912.972 131.341 910.891 134.757C912.491 131.115 913.197 126.927 912.976 123.197C912.774 119.784 912.438 115.143 909.177 112.774C905.823 116.43 903.906 121.888 904.619 126.396C905.157 129.81 906.341 134.317 910.275 135.988C913.745 137.776 917.91 136.736 921.24 135.803C924.822 134.799 928.605 132.673 931.146 129.678C927.995 126.985 923.637 127.373 920.213 128.049Z" fill="#002910"/>
<path d="M905.371 149.403C906.577 145.679 909.495 142.383 912.775 141.014C915.933 139.692 920.04 138.552 923.575 140.627C921.876 144.184 918.532 146.795 915.518 148.52C912.71 150.127 908.714 151.878 905.038 150.729C901.139 149.705 898.605 145.889 897.486 142.241C896.049 137.549 896.324 132.248 898.716 127.894C902.396 129.669 903.763 134.156 904.749 137.528C905.813 141.164 906.096 145.446 905.371 149.403Z" fill="#002910"/>
<path d="M909.181 155.012C905.837 157.716 903.619 161.73 903.321 166.011C903.022 161.332 901.469 156.955 899.639 152.733C897.976 148.895 895.131 144.359 890.81 143.021C889.304 148.432 890.026 155.075 892.956 159.646C895.311 163.319 898.382 167.289 903.359 167.589C907.407 167.936 911.215 165.421 914.036 162.81C917.022 160.048 919.763 156.546 920.779 152.506C916.794 151.118 912.377 152.426 909.181 155.012Z" fill="#002910"/>
<path d="M905.36 183.185C904.67 178.811 905.805 174.24 908.502 170.686C911.058 167.32 915.219 165.072 919.508 165.727C919.46 170.062 917.586 174.281 915.285 177.835C913.152 181.123 909.978 184.649 905.826 185.143C900.642 185.877 896.62 182.239 893.448 178.964C889.355 174.739 887.012 167.934 887.225 161.856C892.205 162.445 895.628 166.735 898.404 170.265C901.276 173.916 903.937 178.475 905.36 183.185Z" fill="#002910"/>
<path d="M920.766 193.497C919.587 197.397 917.467 202.062 913.328 203.607C908.107 205.654 902.894 202.452 898.992 199.723C893.753 196.058 889.069 189.244 887.959 182.485C893.225 182.065 897.717 185.879 901.35 188.966L901.56 189.144C905.616 192.588 909.61 196.989 912.434 201.814C910.469 197.322 910.038 191.836 911.919 187.351C913.6 183.337 917.234 179.872 921.789 179.652C922.845 184.212 922.09 189.116 920.766 193.497Z" fill="#002910"/>
<path d="M911.773 221.907C916.391 223.879 922.915 226.171 927.611 222.601L927.676 222.552C931.525 219.481 931.559 213.873 931.465 209.669C931.354 204.671 930.557 199.27 928.072 194.528C922.945 196.043 921.246 200.753 920.558 205.203C919.743 210.495 922.458 216.545 926.112 220.943C921.6 216.472 916.224 212.586 910.749 209.684L910.192 209.388C905.797 207.05 900.075 204.008 894.974 205.694C898.338 212.792 904.879 218.964 911.773 221.907Z" fill="#002910"/>
<path d="M936.096 238.178C941.528 237.568 948.937 236.238 951.469 230.338L951.505 230.257C953.504 225.283 950.527 219.953 948.182 216.021C945.395 211.347 941.743 206.658 936.844 203.5C932.801 207.685 933.719 213.058 935.455 217.642C937.522 223.092 943.339 227.366 949.161 229.571C942.488 227.758 935.31 226.961 928.567 227.149L927.881 227.168C922.463 227.312 915.412 227.5 911.485 231.833C918.48 236.753 927.987 239.089 936.096 238.178Z" fill="#002910"/>
<path d="M952.192 236.08C954.931 235.167 956.452 232.581 956.757 230.603C986.425 247.035 1000.57 256.62 1022.03 243.383C1024.77 244.296 1024.77 247.948 1022.94 248.404C997.38 265.749 964.82 241.253 952.192 236.08Z" fill="#002910"/>
<path d="M998.715 103.942C1002.53 106.315 1006.61 109.524 1007.57 114.507C1002.9 114.061 998.354 111.944 994.443 109.592C990.504 107.225 986.376 104.681 983.61 100.82C988.828 99.9018 994.516 101.33 998.715 103.942Z" fill="#002910"/>
<path d="M1014.73 121.668C1011.8 118.712 1007.51 116.92 1003.71 116.897C1000.19 116.877 995.673 117.232 993.041 120.491C996.369 122.909 1000.66 124.27 1004.56 124.583C1008.07 124.865 1012.47 125.137 1015.62 122.74C1019.19 120.421 1019.32 115.768 1019.04 112.416C1018.66 107.783 1015.28 102.898 1011.08 100.085C1008.36 103.001 1009.21 107.614 1009.83 110.866C1010.54 114.57 1012.29 118.481 1014.73 121.668Z" fill="#002910"/>
<path d="M1014.3 128.049C1017.87 128.755 1021.54 131.341 1023.62 134.757C1022.02 131.115 1021.31 126.927 1021.53 123.197C1021.74 119.784 1022.07 115.143 1025.33 112.774C1028.69 116.43 1030.6 121.888 1029.89 126.396C1029.35 129.81 1028.17 134.317 1024.23 135.988C1020.76 137.776 1016.6 136.736 1013.27 135.803C1009.69 134.799 1005.9 132.673 1003.36 129.678C1006.51 126.985 1010.87 127.373 1014.3 128.049Z" fill="#002910"/>
<path d="M1029.14 149.403C1027.93 145.679 1025.01 142.383 1021.73 141.014C1018.58 139.692 1014.47 138.552 1010.93 140.627C1012.63 144.184 1015.98 146.795 1018.99 148.52C1021.8 150.127 1025.8 151.878 1029.47 150.729C1033.37 149.705 1035.9 145.889 1037.02 142.241C1038.46 137.549 1038.18 132.248 1035.79 127.894C1032.11 129.669 1030.75 134.156 1029.76 137.528C1028.7 141.164 1028.41 145.446 1029.14 149.403Z" fill="#002910"/>
<path d="M1025.33 155.012C1028.67 157.716 1030.89 161.73 1031.19 166.011C1031.49 161.332 1033.04 156.955 1034.87 152.733C1036.53 148.895 1039.38 144.359 1043.7 143.021C1045.21 148.432 1044.48 155.075 1041.55 159.646C1039.2 163.319 1036.13 167.289 1031.15 167.589C1027.1 167.936 1023.29 165.421 1020.47 162.81C1017.49 160.048 1014.75 156.546 1013.73 152.506C1017.72 151.118 1022.13 152.426 1025.33 155.012Z" fill="#002910"/>
<path d="M1029.15 183.185C1029.84 178.811 1028.7 174.24 1026.01 170.686C1023.45 167.32 1019.29 165.072 1015 165.727C1015.05 170.062 1016.92 174.281 1019.22 177.835C1021.36 181.123 1024.53 184.649 1028.68 185.143C1033.87 185.877 1037.89 182.239 1041.06 178.964C1045.15 174.739 1047.5 167.934 1047.28 161.856C1042.3 162.445 1038.88 166.735 1036.1 170.265C1033.23 173.916 1030.57 178.475 1029.15 183.185Z" fill="#002910"/>
<path d="M1013.74 193.497C1014.92 197.397 1017.04 202.062 1021.18 203.607C1026.4 205.654 1031.61 202.452 1035.52 199.723C1040.76 196.058 1045.44 189.244 1046.55 182.485C1041.28 182.065 1036.79 185.879 1033.16 188.966L1032.95 189.144C1028.89 192.588 1024.9 196.989 1022.08 201.814C1024.04 197.322 1024.47 191.836 1022.59 187.351C1020.91 183.337 1017.28 179.872 1012.72 179.652C1011.66 184.212 1012.42 189.116 1013.74 193.497Z" fill="#002910"/>
<path d="M1022.74 221.907C1018.12 223.879 1011.59 226.171 1006.9 222.601L1006.83 222.552C1002.98 219.481 1002.95 213.873 1003.04 209.669C1003.16 204.671 1003.95 199.27 1006.44 194.528C1011.56 196.043 1013.26 200.753 1013.95 205.203C1014.77 210.495 1012.05 216.545 1008.4 220.943C1012.91 216.472 1018.29 212.586 1023.76 209.684L1024.32 209.388C1028.71 207.05 1034.43 204.008 1039.54 205.694C1036.17 212.792 1029.63 218.964 1022.74 221.907Z" fill="#002910"/>
<path d="M998.414 238.178C992.982 237.568 985.572 236.238 983.04 230.338L983.004 230.257C981.006 225.283 983.982 219.953 986.327 216.021C989.114 211.347 992.767 206.658 997.665 203.5C1001.71 207.685 1000.79 213.058 999.055 217.642C996.987 223.092 991.17 227.366 985.349 229.571C992.021 227.758 999.199 226.961 1005.94 227.149L1006.63 227.168C1012.05 227.312 1019.1 227.5 1023.02 231.833C1016.03 236.753 1006.52 239.089 998.414 238.178Z" fill="#002910"/>
<path d="M982.317 236.08C979.578 235.167 978.057 232.581 977.753 230.603C948.084 247.035 933.935 256.62 912.482 243.383C909.743 244.296 909.743 247.948 911.569 248.404C937.13 265.749 969.689 241.253 982.317 236.08Z" fill="#002910"/>
<path d="M285.284 28.1942V37.9986C280.864 30.9303 274.001 26.5981 265.51 26.5981C247.365 26.5981 237.129 39.9367 237.129 57.8355C237.129 75.8484 247.481 89.643 265.743 89.643C274.234 89.643 280.981 85.3108 285.284 78.2425V88.0469H299.475V28.1942H285.284ZM268.535 77.7865C258.182 77.7865 252.25 68.324 252.25 57.8355C252.25 47.5751 258.066 38.5686 268.767 38.5686C277.607 38.5686 285.168 44.8389 285.168 57.6075C285.168 70.1481 277.956 77.7865 268.535 77.7865Z" fill="#008C44"/>
<path d="M311.695 28.1998V88.0526H326.816V28.1998H311.695Z" fill="#008C44"/>
<path d="M354.687 43.0182V28.1975H339.566V88.0503H354.687V53.8487C354.687 45.0703 360.852 41.5362 366.668 41.5362C370.041 41.5362 373.53 42.4482 375.392 43.1322V27.1715C365.504 27.1715 357.362 32.9858 354.687 43.0182Z" fill="#008C44"/>
<path d="M379.09 46.439C379.09 65.0219 392.118 78.2465 410.845 78.2465C429.688 78.2465 442.601 65.0219 442.601 46.439C442.601 28.1982 429.688 15.2016 410.845 15.2016C392.118 15.2016 379.09 28.1982 379.09 46.439ZM427.478 46.439C427.478 58.0676 421.081 66.39 410.845 66.39C400.493 66.39 394.211 58.0676 394.211 46.439C394.211 35.2665 400.493 27.1722 410.845 27.1722C421.081 27.1722 427.478 35.2665 427.478 46.439Z" fill="#008C44"/>
<path d="M484.767 26.5981C475.926 26.5981 468.715 31.7283 464.876 39.9367V28.1942H449.755V107.998H464.876V77.3304C469.18 84.7408 477.206 89.643 485.697 89.643C502.214 89.643 513.73 76.9884 513.73 58.8616C513.73 39.8227 501.749 26.5981 484.767 26.5981ZM482.091 78.4705C471.972 78.4705 464.876 70.1481 464.876 58.2916C464.876 46.093 471.972 37.5426 482.091 37.5426C491.746 37.5426 498.608 46.321 498.608 58.7476C498.608 70.3761 491.746 78.4705 482.091 78.4705Z" fill="#008C44"/>
<path d="M518.573 67.298C518.573 78.1285 528.344 89.643 547.885 89.643C567.543 89.643 574.638 78.3565 574.638 69.5781C574.638 56.1255 558.47 53.7313 547.652 51.6793C540.324 50.4252 535.672 49.3991 535.672 45.295C535.672 40.6207 540.906 37.6566 546.489 37.6566C554.05 37.6566 556.958 42.7868 557.19 48.2591H572.312C572.312 39.3667 565.914 26.5981 546.14 26.5981C529.041 26.5981 520.55 36.0605 520.55 46.207C520.55 60.6857 536.951 62.1677 547.769 64.2198C554.05 65.3599 559.517 66.7279 559.517 71.1741C559.517 75.6204 554.166 78.5845 548.467 78.5845C543.116 78.5845 533.694 75.6203 533.694 67.298H518.573Z" fill="#008C44"/>
<path d="M319.51 20.901C313.302 20.901 308.848 16.5356 308.848 10.5828C308.848 4.62996 313.302 0 319.51 0C325.449 0 330.173 4.62996 330.173 10.5828C330.173 16.5356 325.449 20.901 319.51 20.901Z" fill="#008C44"/>
</svg>
