<svg width="270" height="270" viewBox="1375 216 270 270" fill="none" xmlns="http://www.w3.org/2000/svg">
<path d="M1461.67 237.872C1455.81 241.517 1449.54 246.447 1448.07 254.102C1455.24 253.417 1462.22 250.165 1468.23 246.552C1474.28 242.915 1480.62 239.007 1484.87 233.075C1476.86 231.665 1468.12 233.859 1461.67 237.872Z" fill="#002910"/>
<path d="M1437.07 265.104C1441.56 260.562 1448.16 257.809 1453.99 257.774C1459.41 257.743 1466.34 258.289 1470.39 263.295C1465.27 267.011 1458.68 269.1 1452.69 269.582C1447.3 270.015 1440.54 270.433 1435.7 266.751C1430.22 263.187 1430.02 256.04 1430.44 250.89C1431.02 243.773 1436.22 236.267 1442.67 231.946C1446.86 236.426 1445.55 243.512 1444.59 248.509C1443.5 254.199 1440.82 260.208 1437.07 265.104Z" fill="#002910"/>
<path d="M1437.73 274.907C1432.24 275.991 1426.61 279.964 1423.41 285.212C1425.87 279.616 1426.95 273.183 1426.61 267.452C1426.3 262.209 1425.79 255.08 1420.78 251.44C1415.63 257.056 1412.68 265.441 1413.78 272.367C1414.6 277.613 1416.42 284.535 1422.46 287.104C1427.8 289.849 1434.19 288.252 1439.31 286.818C1444.81 285.275 1450.62 282.011 1454.53 277.409C1449.69 273.271 1442.99 273.868 1437.73 274.907Z" fill="#002910"/>
<path d="M1414.93 307.712C1416.78 301.991 1421.27 296.927 1426.3 294.824C1431.16 292.793 1437.47 291.042 1442.9 294.229C1440.29 299.695 1435.15 303.705 1430.52 306.356C1426.21 308.825 1420.07 311.514 1414.42 309.749C1408.43 308.176 1404.54 302.314 1402.82 296.71C1400.61 289.501 1401.03 281.357 1404.71 274.669C1410.36 277.395 1412.46 284.288 1413.98 289.468C1415.61 295.055 1416.04 301.632 1414.93 307.712Z" fill="#002910"/>
<path d="M1420.78 316.329C1415.65 320.483 1412.24 326.649 1411.78 333.227C1411.32 326.038 1408.94 319.314 1406.13 312.827C1403.57 306.931 1399.2 299.964 1392.56 297.908C1390.25 306.22 1391.36 316.425 1395.86 323.448C1399.48 329.09 1404.19 335.19 1411.84 335.65C1418.06 336.183 1423.91 332.32 1428.24 328.309C1432.83 324.065 1437.04 318.685 1438.6 312.478C1432.48 310.346 1425.69 312.356 1420.78 316.329Z" fill="#002910"/>
<path d="M1414.91 359.61C1413.85 352.89 1415.6 345.868 1419.74 340.408C1423.67 335.238 1430.06 331.784 1436.65 332.791C1436.57 339.449 1433.7 345.931 1430.16 351.392C1426.88 356.442 1422.01 361.858 1415.63 362.618C1407.67 363.745 1401.49 358.156 1396.61 353.125C1390.33 346.635 1386.73 336.181 1387.05 326.843C1394.7 327.747 1399.96 334.339 1404.23 339.761C1408.64 345.371 1412.73 352.375 1414.91 359.61Z" fill="#002910"/>
<path d="M1438.58 375.452C1436.77 381.443 1433.51 388.611 1427.15 390.984C1419.13 394.128 1411.13 389.21 1405.13 385.017C1397.08 379.386 1389.89 368.918 1388.18 358.535C1396.27 357.89 1403.17 363.75 1408.75 368.492L1409.08 368.765C1415.31 374.055 1421.44 380.816 1425.78 388.23C1422.76 381.328 1422.1 372.9 1424.99 366.01C1427.57 359.844 1433.16 354.52 1440.15 354.182C1441.78 361.188 1440.61 368.721 1438.58 375.452Z" fill="#002910"/>
<path d="M1424.77 419.098C1431.86 422.126 1441.88 425.647 1449.1 420.163L1449.2 420.089C1455.11 415.371 1455.16 406.755 1455.02 400.297C1454.85 392.619 1453.62 384.321 1449.81 377.036C1441.93 379.363 1439.32 386.599 1438.26 393.435C1437.01 401.565 1441.18 410.86 1446.8 417.616C1439.86 410.748 1431.6 404.777 1423.19 400.319L1422.34 399.865C1415.58 396.273 1406.8 391.599 1398.96 394.189C1404.13 405.095 1414.18 414.577 1424.77 419.098Z" fill="#002910"/>
<path d="M1462.13 444.095C1470.48 443.157 1481.86 441.114 1485.75 432.05L1485.81 431.925C1488.88 424.283 1484.3 416.095 1480.7 410.055C1476.42 402.874 1470.81 395.67 1463.28 390.819C1457.07 397.248 1458.48 405.504 1461.15 412.545C1464.32 420.918 1473.26 427.484 1482.2 430.871C1471.95 428.086 1460.93 426.861 1450.57 427.151L1449.51 427.18C1441.19 427.401 1430.36 427.689 1424.32 434.347C1435.07 441.904 1449.68 445.494 1462.13 444.095Z" fill="#002910"/>
<path d="M1486.86 440.871C1491.07 439.469 1493.41 435.495 1493.87 432.457C1539.45 457.7 1561.19 472.426 1594.15 452.091C1598.35 453.493 1598.35 459.103 1595.55 459.804C1556.28 486.45 1506.26 448.818 1486.86 440.871Z" fill="#002910"/>
<path d="M1558.33 237.872C1564.19 241.517 1570.46 246.447 1571.93 254.102C1564.76 253.417 1557.78 250.165 1551.77 246.552C1545.72 242.915 1539.38 239.007 1535.13 233.075C1543.14 231.665 1551.88 233.859 1558.33 237.872Z" fill="#002910"/>
<path d="M1582.94 265.104C1578.44 260.562 1571.85 257.809 1566.01 257.774C1560.59 257.743 1553.66 258.289 1549.62 263.295C1554.73 267.011 1561.32 269.1 1567.32 269.582C1572.7 270.015 1579.46 270.433 1584.31 266.751C1589.79 263.187 1589.98 256.04 1589.56 250.89C1588.98 243.773 1583.78 236.267 1577.33 231.946C1573.14 236.426 1574.45 243.512 1575.41 248.509C1576.51 254.199 1579.18 260.208 1582.94 265.104Z" fill="#002910"/>
<path d="M1582.27 274.907C1587.76 275.991 1593.39 279.964 1596.59 285.212C1594.13 279.616 1593.05 273.183 1593.39 267.452C1593.7 262.209 1594.21 255.08 1599.22 251.44C1604.38 257.056 1607.32 265.441 1606.23 272.367C1605.4 277.613 1603.58 284.535 1597.54 287.104C1592.21 289.849 1585.81 288.252 1580.69 286.818C1575.19 285.275 1569.38 282.011 1565.47 277.409C1570.31 273.271 1577.01 273.868 1582.27 274.907Z" fill="#002910"/>
<path d="M1605.07 307.712C1603.22 301.991 1598.74 296.927 1593.7 294.824C1588.84 292.793 1582.53 291.042 1577.1 294.229C1579.71 299.695 1584.85 303.705 1589.48 306.356C1593.8 308.825 1599.94 311.514 1605.58 309.749C1611.57 308.176 1615.46 302.314 1617.18 296.71C1619.39 289.501 1618.97 281.357 1615.29 274.669C1609.64 277.395 1607.54 284.288 1606.03 289.468C1604.39 295.055 1603.96 301.632 1605.07 307.712Z" fill="#002910"/>
<path d="M1599.22 316.329C1604.35 320.483 1607.76 326.649 1608.22 333.227C1608.68 326.038 1611.07 319.314 1613.88 312.827C1616.43 306.931 1620.8 299.964 1627.44 297.908C1629.75 306.22 1628.64 316.425 1624.14 323.448C1620.53 329.09 1615.81 335.19 1608.16 335.65C1601.94 336.183 1596.09 332.32 1591.76 328.309C1587.17 324.065 1582.96 318.685 1581.4 312.478C1587.52 310.346 1594.31 312.356 1599.22 316.329Z" fill="#002910"/>
<path d="M1605.09 359.61C1606.15 352.89 1604.4 345.868 1600.26 340.408C1596.33 335.238 1589.94 331.784 1583.35 332.791C1583.43 339.449 1586.31 345.931 1589.84 351.392C1593.12 356.442 1597.99 361.858 1604.37 362.618C1612.34 363.745 1618.51 358.156 1623.39 353.125C1629.68 346.635 1633.27 336.181 1632.95 326.843C1625.3 327.747 1620.04 334.339 1615.77 339.761C1611.36 345.371 1607.27 352.375 1605.09 359.61Z" fill="#002910"/>
<path d="M1581.42 375.452C1583.23 381.443 1586.49 388.611 1592.85 390.984C1600.87 394.128 1608.88 389.21 1614.87 385.017C1622.92 379.386 1630.11 368.918 1631.82 358.535C1623.73 357.89 1616.83 363.75 1611.25 368.492L1610.92 368.765C1604.69 374.055 1598.56 380.816 1594.22 388.23C1597.24 381.328 1597.9 372.9 1595.01 366.01C1592.43 359.844 1586.85 354.52 1579.85 354.182C1578.23 361.188 1579.39 368.721 1581.42 375.452Z" fill="#002910"/>
<path d="M1595.24 419.098C1588.14 422.126 1578.12 425.647 1570.9 420.163L1570.8 420.089C1564.89 415.371 1564.84 406.755 1564.98 400.297C1565.15 392.619 1566.38 384.321 1570.2 377.036C1578.07 379.363 1580.68 386.599 1581.74 393.435C1582.99 401.565 1578.82 410.86 1573.21 417.616C1580.14 410.748 1588.4 404.777 1596.81 400.319L1597.66 399.865C1604.42 396.273 1613.21 391.599 1621.04 394.189C1615.87 405.095 1605.83 414.577 1595.24 419.098Z" fill="#002910"/>
<path d="M1557.87 444.095C1549.52 443.157 1538.14 441.114 1534.25 432.05L1534.2 431.925C1531.13 424.283 1535.7 416.095 1539.3 410.055C1543.58 402.874 1549.19 395.67 1556.72 390.819C1562.93 397.248 1561.52 405.504 1558.85 412.545C1555.68 420.918 1546.74 427.484 1537.8 430.871C1548.05 428.086 1559.08 426.861 1569.43 427.151L1570.49 427.18C1578.81 427.401 1589.65 427.689 1595.68 434.347C1584.93 441.904 1570.33 445.494 1557.87 444.095Z" fill="#002910"/>
<path d="M1533.14 440.871C1528.93 439.469 1526.6 435.495 1526.13 432.457C1480.55 457.7 1458.81 472.426 1425.85 452.091C1421.65 453.493 1421.65 459.103 1424.45 459.804C1463.72 486.45 1513.74 448.818 1533.14 440.871Z" fill="#002910"/>
</svg>
