<svg width="439" height="71" viewBox="0 0 439 71" fill="none" xmlns="http://www.w3.org/2000/svg">
<path d="M11.1326 14.4447L14.1657 14.7462L7.83997 27.4307C6.90733 29.2916 5.44928 31.1002 2.55952 30.813C1.96246 30.7536 1.35101 30.5964 0.866104 30.3794L1.12249 27.8001C1.42109 27.9503 1.81522 28.1101 2.50781 28.1789C3.67804 28.2953 4.72145 27.989 5.56597 26.5294L1.91404 13.5284L4.97098 13.8322L7.21883 23.0036L11.1326 14.4447ZM16.1952 21.9664C16.2609 23.9747 17.3912 25.2206 19.2062 25.401C20.5914 25.5387 21.7039 25.0222 22.0997 23.9521L25.085 24.2489C24.4108 26.9072 21.9399 28.2293 18.8829 27.9254C14.7991 27.5195 12.9869 24.1557 13.3098 20.9078C13.6302 17.6836 15.9258 14.7282 19.9858 15.1318C24.0458 15.5354 25.7003 18.787 25.4036 21.7722C25.3537 22.2738 25.2537 22.7944 25.2466 22.8661L16.1952 21.9664ZM19.7579 17.4245C18.2056 17.2702 17.0622 18.0971 16.5162 19.707L22.2719 20.2792C22.2997 18.7866 21.4536 17.593 19.7579 17.4245ZM36.2614 29.6529C32.5835 29.2873 30.2009 26.3251 30.5688 22.6233C30.9344 18.9455 33.8536 16.5103 37.5315 16.8759C41.1855 17.2391 43.592 20.2036 43.2264 23.8815C42.8585 27.5833 39.9154 30.0161 36.2614 29.6529ZM36.5202 27.0497C38.4546 27.242 39.9464 25.8226 40.1695 23.5777C40.3927 21.3327 39.1833 19.6689 37.2727 19.479C35.2905 19.282 33.8704 20.7085 33.6496 22.9296C33.4265 25.1745 34.5379 26.8527 36.5202 27.0497ZM44.1129 30.2404L45.8435 12.8302L48.8526 13.1293L47.122 30.5395L44.1129 30.2404ZM54.5388 31.4697C50.8371 31.1017 48.8772 28.2539 49.2522 24.4805C49.6273 20.7071 52.131 18.3271 55.7611 18.6879C57.2896 18.8398 58.5629 19.6176 59.1844 20.6441L59.823 14.2198L62.8322 14.5189L61.1016 31.9291L58.0924 31.63L58.2372 30.1732C57.5715 31.0476 56.139 31.6287 54.5388 31.4697ZM55.2275 28.9093C57.2097 29.1063 58.6728 27.7323 58.9007 25.4396C59.1262 23.1708 57.9623 21.5356 55.98 21.3386C53.9978 21.1415 52.5347 22.5155 52.3092 24.7844C52.0837 27.0532 53.2453 28.7122 55.2275 28.9093Z" fill="#008C44"/>
<path d="M14.7793 55.0061C10.196 55.0899 6.2552 52.2334 6.14688 46.3064C6.04733 40.8593 9.80086 37.4061 14.5281 37.3198C18.6314 37.2448 21.7681 39.4438 22.4879 43.3673L18.9605 43.4318C18.5157 41.4236 16.787 40.0869 14.5314 40.1282C11.5559 40.1825 9.3668 42.5509 9.43433 46.2463C9.50055 49.8697 11.656 52.2307 14.9435 52.1706C17.6071 52.122 19.3294 50.4822 19.4561 48.2235L14.249 48.3187L14.2012 45.7031L22.4558 45.5523L22.6225 54.6708L19.671 54.7247L19.6297 52.4691C18.8882 53.9229 16.9389 54.9667 14.7793 55.0061ZM28.1528 54.5697L27.8879 40.0761L22.6088 40.1726L22.5575 37.3651L36.3072 37.1138L36.3585 39.9213L31.0794 40.0178L31.3443 54.5114L28.1528 54.5697ZM37.9835 54.39L37.6673 37.0889L41.6986 37.0152L46.7262 48.1092C47.4261 49.6327 47.7089 50.6597 47.7089 50.6597C47.7089 50.6597 47.954 49.6231 48.5978 48.075L53.2407 36.8043L57.104 36.7337L57.4202 54.0348L54.2288 54.0931L54.0599 44.8547C54.0292 43.175 54.0815 42.0938 54.0815 42.0938C54.0815 42.0938 53.7404 43.1322 53.1206 44.6798L49.2616 54.1839L46.1901 54.2401L41.9384 44.8842C41.2385 43.3607 40.8837 42.335 40.8837 42.335C40.8837 42.335 40.9754 43.4135 41.0061 45.0932L41.1749 54.3317L37.9835 54.39Z" fill="#008C44"/>
<path d="M288.314 55.4775C288.1 55.64 287.874 55.8043 287.635 55.9705C287.418 56.1072 287.225 56.2273 287.055 56.3307C286.912 56.4304 286.789 56.4878 286.685 56.5027C286.118 56.5847 285.792 56.3293 285.706 55.7364C285.661 55.427 285.768 55.1616 286.025 54.9401C289.774 52.1078 293.505 48.7912 297.219 44.9902C300.959 41.1854 302.417 36.5264 301.593 31.0131C301.067 27.5623 299.392 24.1724 296.568 20.8436C293.744 17.5147 289.999 16.1879 285.333 16.863C282.162 17.3218 279.385 18.8685 277.002 21.503C274.616 24.1118 273.623 26.7954 274.022 29.5539C274.436 32.4155 275.623 34.7969 277.582 36.6979C279.542 38.599 282.378 39.5572 286.091 39.5727C289.016 39.2286 291.274 38.2833 292.867 36.7369C293.072 36.5229 293.304 36.213 293.561 35.8073C293.84 35.3721 294.135 35.1321 294.444 35.0874C294.831 35.0314 295.1 35.1636 295.251 35.4838C295.403 35.804 295.38 36.0969 295.181 36.3625C294.682 37.0928 293.939 37.8715 292.953 38.6984C291.408 40.0274 289.54 40.8504 287.349 41.1674C281.508 42.0915 277.253 41.2462 274.585 38.6318C271.913 35.9916 270.461 32.3195 270.228 27.6156C269.994 22.9117 271.538 18.6615 274.858 14.8648C278.203 11.0645 282.379 8.90746 287.384 8.39382C291.664 7.95883 295.199 8.38168 297.99 9.66236C300.781 10.943 303.028 12.7367 304.73 15.0435C304.9 15.3084 305.123 15.3946 305.399 15.302C305.709 15.2572 305.867 15.0764 305.874 14.7596C306.219 12.0514 307.268 9.75444 309.022 7.86884C310.802 5.97952 313.238 4.81106 316.332 4.36346C319.297 3.93451 322.026 4.51353 324.519 6.1005C327.008 7.66169 329.063 10.4964 330.684 14.6047C331.838 17.3066 333.082 18.5348 334.415 18.2893C334.957 18.211 335.298 18.3853 335.438 18.8124C335.601 19.21 335.443 19.575 334.965 19.9074L326.813 25.2322C326.552 25.428 326.468 25.6639 326.56 25.94C326.627 26.2199 326.821 26.3761 327.141 26.4087C330.31 26.6609 333.246 27.9468 335.951 30.2665C338.677 32.5567 340.315 35.5966 340.863 39.3863C341.621 45.3565 338.464 51.1827 331.39 56.8648C327.494 59.9552 323.606 62.0048 319.725 63.0138C315.844 64.0227 312.075 64.1731 308.42 63.465C304.248 62.6473 300.508 60.8065 297.198 57.9427C293.911 55.0494 290.949 54.2276 288.314 55.4775ZM311.273 33.5211L325.325 24.2237C325.531 24.0097 325.621 23.8124 325.595 23.6319C325.557 23.3741 325.426 23.1957 325.201 23.0966C323.299 22.3191 321.662 20.2793 320.289 16.9773C319.227 14.5515 318.054 12.6288 316.77 11.2091C315.485 9.78947 313.84 9.33009 311.833 9.831C309.19 10.8451 307.791 12.5477 307.637 14.9388C307.508 17.3262 307.826 19.978 308.59 22.8943C309.848 27.5816 309.132 32.0938 306.443 36.4308C303.75 40.7421 300.781 44.5012 297.533 47.7083C299.85 47.3468 302.432 48.184 305.28 50.2198C307.283 51.6934 309.331 53.0288 311.426 54.226C313.546 55.4195 315.734 56.3531 317.99 57.0269C320.828 57.906 323.554 58.0116 326.169 57.3438C328.779 56.6503 330.86 54.928 332.409 52.1771C333.54 50.171 333.945 47.9674 333.624 45.5661C333.325 43.1352 332.07 40.8295 329.86 38.649C327.675 36.4647 325.138 35.1209 322.249 34.6177C319.386 34.1108 315.923 34.2827 311.861 35.1336C311.298 35.2414 310.933 35.0837 310.766 34.6603C310.622 34.2075 310.791 33.8277 311.273 33.5211Z" fill="#008C44"/>
<path d="M306.414 29.3398L310.52 57.7189" stroke="#008C44" stroke-width="0.66685"/>
<path d="M308.031 40.5586L310.767 44.369L309.223 48.7986L306.487 44.9882L308.031 40.5586Z" fill="#008C44"/>
<path d="M109.004 3.12695C108.176 4.10809 102.122 9.08079 100.933 9.79297V33.5234C103.131 33.5866 104.362 33.8733 105.939 32.6143C106.123 32.6152 106.55 32.6371 106.694 32.5781L107.921 33.5107C109.51 33.5107 115.266 33.5625 116.979 33.5625C120.634 33.5625 128.721 33.4966 132.499 33.5098C132.174 33.6892 126.917 34.5797 126.711 34.7266C124.098 37.0321 125.86 42.611 125.201 45.5684C122.865 56.0582 112.155 65.3973 99.1436 63.8906C92.574 63.1384 86.6339 60.147 82.6651 55.5908C77.5019 49.7411 75.6662 42.315 76.92 35.1377C78.56 25.7506 84.0078 19.1538 92.6056 13.5957C87.9007 12.8934 83.1819 10.8155 78.2511 11.2324C76.1232 11.4125 73.9718 12.9587 74.3175 14.9346C74.4514 15.686 74.9356 16.3585 75.6583 16.7979C77.6258 18.0067 79.8731 17.5191 82.0899 17.2012C81.5193 18.8 80.7271 20.6245 80.0841 22.2256C73.7086 21.346 71.8824 17.2469 74.0333 12.4053C74.7704 10.7017 76.0353 9.20249 77.6905 8.06934C84.0145 3.8004 91.8548 9.03778 98.7296 8.89355C100.463 8.85683 105.096 5.82492 108.769 3L109.004 3.12695ZM107.801 34.2373C107.169 34.8454 106.636 35.1669 106.74 36.0693C106.924 37.6439 107.918 39.634 108.528 41.1807C105.756 47.6874 106.637 52.4906 106.691 59.4658C109.113 59.529 111.072 59.6579 113.461 59.1406C114.398 58.9074 115.408 58.7365 116.082 58.1338C116.652 57.1121 116.362 37.4498 116.362 34.2266L107.801 34.2373ZM105.468 35.0176C104.196 33.8551 102.687 34.1847 100.925 34.2373C101 41.0824 101.673 44.82 95.589 50.1436C94.3148 51.2689 92.8898 52.2609 91.3438 53.0986C93.9831 55.1498 96.4212 56.6991 99.7618 57.8545C102.049 58.5856 103.464 58.8796 105.868 59.2852C105.96 51.7966 106.847 48.1655 103.999 41.2031C104.74 39.3673 106.344 36.5938 105.468 35.0176ZM92.5411 14.5605C80.0537 23.6463 78.3475 36.6055 86.7677 48.4814C87.544 49.3866 89.5852 52.0525 90.7208 52.2168C92.1245 51.2965 92.4049 49.2232 92.6339 47.7734C93.0193 45.3331 93.1581 15.2733 92.6056 14.6299C92.5852 14.6062 92.5623 14.5837 92.5411 14.5605ZM123.127 8.6709C123.132 14.3495 123.336 21.1611 122.992 26.749C122.157 21.969 121.382 13.9275 116.655 10.9688C113.674 9.10246 110.159 9.36558 106.683 9.42188C106.684 16.9798 106.521 25.0598 106.699 32.5762C106.555 32.6352 106.128 32.6133 105.943 32.6123C105.937 24.6827 106.023 16.5713 105.899 8.65625L123.127 8.6709Z" fill="#008C44"/>
<path d="M134.474 61.8047V9.83298H156.243C166.478 9.83298 172.894 15.6717 172.894 25.1866C172.894 31.0974 169.866 36.0711 164.604 38.3778C168.281 40.0357 170.083 42.7027 171.092 47.3881L172.822 55.8218C173.182 57.8401 173.831 60.2189 174.84 61.8047H165.83C165.037 60.5793 164.532 58.9214 164.316 57.4076L162.874 49.1181C161.793 43.0632 158.477 40.4682 150.548 40.4682H142.835V61.8047H134.474ZM155.161 33.0436C160.928 33.0436 164.316 30.1603 164.316 25.1866C164.316 20.2129 160.928 17.2575 155.161 17.2575H142.835V33.0436H155.161ZM175.297 61.8047L195.408 9.83298H204.275L224.458 61.8047H215.447L210.762 49.4064H188.633L184.019 61.8047H175.297ZM191.372 42.1261H208.023L199.661 20.0687L191.372 42.1261ZM228.1 61.8047V9.83298H247.562C257.293 9.83298 263.637 14.5184 263.637 23.1683C263.637 27.8537 261.042 31.602 257.077 33.332C262.483 35.3503 266.015 39.8194 266.015 46.5231C266.015 56.4706 259.312 61.8047 248.427 61.8047H228.1ZM246.985 54.3802C253.977 54.3802 257.509 51.5689 257.509 46.1627C257.509 40.8286 253.977 37.8732 246.985 37.8732H236.461V54.3802H246.985ZM246.625 30.5928C252.32 30.5928 255.203 28.142 255.203 23.745C255.203 19.3479 252.247 16.825 246.553 16.825H236.461V30.5928H246.625Z" fill="#008C44"/>
<path d="M338.716 61.8047L358.827 9.83298H367.694L387.877 61.8047H378.866L374.181 49.4064H352.052L347.438 61.8047H338.716ZM354.791 42.1261H371.442L363.08 20.0687L354.791 42.1261ZM411.831 62.3814C398.424 62.3814 386.674 53.5872 386.674 35.7828C386.674 19.0596 398.28 9.25632 412.048 9.25632C424.013 9.25632 433.096 15.8879 435.042 27.2049H425.96C424.59 20.7896 419.256 16.6088 411.975 16.6088C402.316 16.6088 395.18 23.817 395.18 35.7828C395.18 47.0998 401.668 54.9568 412.408 54.9568C421.058 54.9568 426.825 49.4064 427.185 41.6936H410.39V34.7015H435.042V61.8047H427.401V54.1639C425.095 58.9935 418.751 62.3814 411.831 62.3814Z" fill="#008C44"/>
</svg>
