<svg width="1279" height="559" viewBox="0 0 1279 559" fill="none" xmlns="http://www.w3.org/2000/svg">
<g clip-path="url(#clip0_1791_3055)">
<path d="M0 0V558.27H1278.48V0H0ZM1244.51 524.255H33.9683V34.015H1244.51V524.255ZM185.127 292.954C185.127 230.026 238.203 192.61 285.758 192.61C319.727 192.61 351.572 205.365 368.556 235.128L336.711 253.837C331.191 245.333 323.548 238.53 315.056 233.853C306.139 229.176 296.373 226.625 286.608 226.625C258.584 226.625 225.465 248.734 225.465 292.103C225.465 334.622 257.31 358.007 289.155 358.007C311.235 358.007 329.917 345.677 340.957 326.118L373.227 341.425C354.969 374.59 321.85 392.448 283.635 392.448C235.655 392.448 185.127 355.456 185.127 292.954ZM486.171 392.448C512.497 392.448 537.548 380.542 550.286 363.535V386.92H589.35V197.712H550.286V221.097C537.973 204.09 512.497 192.61 486.171 192.61C428.425 192.61 388.088 235.128 388.088 292.529C388.088 349.078 428.85 392.448 486.171 392.448ZM489.993 228.751C526.084 228.751 551.136 255.963 551.136 292.529C551.136 329.095 526.084 356.307 489.993 356.307C453.052 356.307 428.001 328.669 428.001 291.678C428.001 255.537 453.901 228.751 489.993 228.751ZM788.065 234.278H757.918V196.436H788.489V140.312H828.827V196.436H870.862V234.278H828.827V386.92H788.065V234.278ZM982.533 392.448C1008.86 392.448 1033.91 380.542 1046.65 363.535V386.92H1085.71V197.712H1046.65V221.097C1034.33 204.09 1008.86 192.61 982.533 192.61C924.787 192.61 884.45 235.128 884.45 292.529C884.45 349.078 925.212 392.448 982.533 392.448ZM986.355 228.751C1022.45 228.751 1047.5 255.963 1047.5 292.529C1047.5 329.095 1022.45 356.307 986.355 356.307C949.414 356.307 924.362 328.669 924.362 291.678C924.362 255.537 950.263 228.751 986.355 228.751ZM670.874 386.92H630.112V197.287H667.477V230.026C675.12 208.767 691.68 194.31 713.334 194.31C718.005 194.31 722.676 194.736 727.346 195.586V232.152C696.775 228.751 671.299 250.01 671.299 298.906V386.92H670.874Z" fill="black"/>
</g>
<defs>
<clipPath id="clip0_1791_3055">
<rect width="1278.48" height="558.27" fill="white"/>
</clipPath>
</defs>
</svg>
