<svg width="824" height="836" viewBox="0 0 824 836" fill="none" xmlns="http://www.w3.org/2000/svg">
<g clip-path="url(#clip0_2992_1637)">
<g clip-path="url(#clip1_2992_1637)">
</g>
<rect width="824" height="865.337" stroke="#005E1F" stroke-width="1.40477"/>
<path d="M738.793 154.951C718.715 134.673 689.279 122.383 663.222 122.224C639.029 122.09 608.082 124.525 590.027 146.874C612.853 163.465 642.301 172.796 669.052 174.944C693.098 176.879 723.29 178.745 744.908 162.304C769.374 146.395 770.251 114.482 768.367 91.4916C765.782 59.7142 742.582 26.2033 713.754 6.91113C695.071 26.9107 700.911 58.5504 705.209 80.861C710.083 106.265 722.026 133.091 738.793 154.951Z" fill="#008C44"/>
<path d="M735.816 198.72C760.329 203.559 785.481 221.297 799.755 244.727C788.782 219.745 783.941 191.021 785.458 165.434C786.841 142.029 789.149 110.196 811.517 93.9474C834.517 119.019 847.667 156.456 842.775 187.382C839.088 210.8 830.964 241.709 803.986 253.175C780.18 265.434 751.611 258.302 728.771 251.901C704.201 245.013 678.26 230.436 660.828 209.89C682.443 191.418 712.332 194.083 735.816 198.72Z" fill="#008C44"/>
<path d="M837.622 345.184C829.347 319.643 809.335 297.032 786.837 287.642C765.172 278.578 737.001 270.758 712.76 284.99C724.408 309.39 747.348 327.297 768.023 339.13C787.28 350.154 814.691 362.163 839.904 354.281C866.649 347.258 884.029 321.086 891.703 296.065C901.56 263.878 899.67 227.516 883.268 197.657C858.026 209.827 848.652 240.603 841.884 263.733C834.585 288.676 832.649 318.041 837.622 345.184Z" fill="#008C44"/>
<path d="M811.49 383.659C834.423 402.207 849.635 429.736 851.679 459.102C853.731 427.008 864.384 396.987 876.934 368.026C888.343 341.7 907.859 310.591 937.496 301.414C947.822 338.524 942.869 384.09 922.776 415.443C906.623 440.633 885.561 467.868 851.423 469.921C823.654 472.302 797.536 455.056 778.185 437.146C757.702 418.198 738.906 394.177 731.938 366.467C759.269 356.946 789.562 365.918 811.49 383.659Z" fill="#008C44"/>
<path d="M837.695 576.897C842.432 546.894 834.641 515.542 816.142 491.167C798.615 468.081 770.074 452.663 740.653 457.156C740.985 486.884 753.838 515.823 769.618 540.205C784.248 562.752 806.023 586.937 834.502 590.326C870.06 595.361 897.642 570.407 919.398 547.945C947.474 518.97 963.544 472.292 962.082 430.601C927.926 434.639 904.448 464.069 885.403 488.278C865.708 513.324 847.454 544.594 837.695 576.897Z" fill="#008C44"/>
<path d="M732.024 647.626C740.114 674.376 754.649 706.378 783.044 716.972C818.853 731.011 854.606 709.052 881.37 690.332C917.31 665.193 949.434 618.456 957.048 572.097C920.931 569.216 890.12 595.38 865.197 616.553L863.757 617.771C835.937 641.391 808.547 671.578 789.176 704.678C802.649 673.863 805.608 636.235 792.708 605.472C781.179 577.944 756.25 554.171 725.008 552.662C717.762 583.945 722.946 617.576 732.024 647.626Z" fill="#008C44"/>
<path d="M793.708 842.496C762.032 856.017 717.282 871.738 685.078 847.254L684.63 846.921C658.226 825.856 657.993 787.39 658.637 758.554C659.404 724.274 664.867 687.225 681.914 654.7C717.078 665.089 728.733 697.398 733.449 727.917C739.039 764.217 720.421 805.715 695.353 835.879C726.303 805.217 763.18 778.557 800.732 758.654L804.55 756.626C834.701 740.59 873.943 719.721 908.931 731.285C885.856 779.976 840.991 822.311 793.708 842.496Z" fill="#008C44"/>
<path d="M626.878 954.099C589.619 949.912 538.797 940.793 521.43 900.323L521.184 899.767C507.476 865.648 527.893 829.088 543.974 802.12C563.093 770.06 588.146 737.898 621.743 716.237C649.478 744.944 643.182 781.801 631.274 813.239C617.093 850.622 577.193 879.939 537.265 895.062C583.032 882.624 632.266 877.157 678.515 878.452L683.219 878.58C720.382 879.567 768.75 880.855 795.686 910.58C747.705 944.32 682.495 960.349 626.878 954.099Z" fill="#008C44"/>
<path d="M516.471 939.708C497.685 933.447 487.25 915.706 485.163 902.139C281.664 1014.85 184.613 1080.59 37.466 989.8C18.6832 996.062 18.6814 1021.11 31.2056 1024.24C206.528 1143.21 429.854 975.19 516.471 939.708Z" fill="#008C44"/>
<path d="M197.37 33.3673C171.209 49.6427 143.212 71.6525 136.637 105.83C168.649 102.771 199.848 88.2517 226.674 72.1219C253.686 55.8859 282 38.4366 300.973 11.9513C265.184 5.65475 226.171 15.4494 197.37 33.3673Z" fill="#008C44"/>
<path d="M627.851 33.3674C654.011 49.6428 682.008 71.6525 688.583 105.831C656.571 102.771 625.372 88.2517 598.546 72.1219C571.535 55.886 543.22 38.4367 524.247 11.9514C560.036 5.6548 599.049 15.4495 627.851 33.3674Z" fill="#008C44"/>
<path d="M87.5205 154.951C107.598 134.673 137.035 122.383 163.092 122.224C187.285 122.09 218.231 124.525 236.287 146.874C213.461 163.465 184.013 172.796 157.262 174.944C133.215 176.879 103.024 178.745 81.4058 162.304C56.9395 146.395 56.0629 114.482 57.9466 91.4916C60.5314 59.7142 83.732 26.2033 112.56 6.91113C131.243 26.9107 125.403 58.5504 121.105 80.861C116.231 106.265 104.287 133.091 87.5205 154.951Z" fill="#008C44"/>
<path d="M90.4975 198.72C65.9844 203.559 40.833 221.297 26.5585 244.727C37.5316 219.745 42.3728 191.021 40.8554 165.434C39.4727 142.029 37.1646 110.196 14.7962 93.9474C-8.2036 119.019 -21.353 156.456 -16.4615 187.382C-12.7742 210.8 -4.65018 241.709 22.328 253.175C46.1338 265.434 74.7028 258.302 97.5428 251.901C122.113 245.013 148.054 230.436 165.485 209.89C143.87 191.418 113.981 194.083 90.4975 198.72Z" fill="#008C44"/>
<path d="M-11.3085 345.184C-3.03369 319.643 16.9782 297.032 39.4765 287.642C61.1414 278.578 89.3123 270.758 113.553 284.99C101.906 309.39 78.9652 327.297 58.2901 339.13C39.0331 350.154 11.6221 362.163 -13.5909 354.281C-40.3356 347.258 -57.7149 321.086 -65.3895 296.065C-75.2465 263.878 -73.3569 227.516 -56.9541 197.657C-31.7124 209.827 -22.3387 240.603 -15.5701 263.733C-8.27173 288.676 -6.33525 318.041 -11.3085 345.184Z" fill="#008C44"/>
<path d="M14.8237 383.659C-8.1093 402.207 -23.3216 429.736 -25.3655 459.102C-27.4182 427.008 -38.0709 396.987 -50.6209 368.026C-62.0294 341.7 -81.5461 310.591 -111.183 301.414C-121.508 338.524 -116.555 384.09 -96.463 415.443C-80.3095 440.633 -59.2476 467.868 -25.1093 469.921C2.65915 472.302 28.7776 455.056 48.1282 437.146C68.6109 418.198 87.4072 394.177 94.3751 366.467C67.0439 356.946 36.751 365.918 14.8237 383.659Z" fill="#008C44"/>
<path d="M-11.3811 576.897C-16.118 546.894 -8.32699 515.542 10.1719 491.167C27.6988 468.081 56.2394 452.663 85.6605 457.156C85.3286 486.884 72.4758 515.823 56.6955 540.205C42.0656 562.752 20.2905 586.937 -8.18797 590.326C-43.746 595.361 -71.329 570.407 -93.0849 547.945C-121.16 518.97 -137.231 472.292 -135.769 430.601C-101.612 434.639 -78.1341 464.069 -59.0897 488.278C-39.3942 513.324 -21.14 544.594 -11.3811 576.897Z" fill="#008C44"/>
<path d="M94.2891 647.626C86.1997 674.376 71.6643 706.378 43.2689 716.972C7.46036 731.011 -28.2931 709.052 -55.0569 690.332C-90.9972 665.193 -123.121 618.456 -130.734 572.097C-94.6173 569.216 -63.8067 595.38 -38.8837 616.553L-37.4442 617.771C-9.62411 641.391 17.7661 671.578 37.1377 704.678C23.6644 673.863 20.705 636.235 33.6051 605.472C45.1343 577.944 70.0628 554.171 101.305 552.662C108.551 583.945 103.367 617.576 94.2891 647.626Z" fill="#008C44"/>
<path d="M32.6058 842.496C64.282 856.017 109.032 871.738 141.236 847.254L141.684 846.921C168.087 825.856 168.32 787.39 167.677 758.554C166.91 724.274 161.447 687.225 144.4 654.7C109.235 665.089 97.5803 697.398 92.865 727.917C87.2751 764.217 105.893 805.715 130.96 835.879C100.01 805.217 63.1335 778.557 25.5816 758.654L21.7634 756.626C-8.3871 740.59 -47.6299 719.721 -82.6172 731.285C-59.5426 779.976 -14.6777 822.311 32.6058 842.496Z" fill="#008C44"/>
<path d="M199.436 954.099C236.694 949.912 287.516 940.793 304.884 900.323L305.129 899.767C318.837 865.648 298.42 829.088 282.339 802.12C263.22 770.06 238.168 737.898 204.57 716.237C176.836 744.944 183.131 781.801 195.039 813.239C209.22 850.622 249.12 879.939 289.048 895.062C243.281 882.624 194.047 877.157 147.799 878.452L143.094 878.58C105.931 879.567 57.5633 880.855 30.6276 910.58C78.6081 944.32 143.818 960.349 199.436 954.099Z" fill="#008C44"/>
<path d="M309.843 939.708C328.628 933.447 339.063 915.706 341.15 902.139C544.65 1014.85 641.701 1080.59 788.848 989.8C807.63 996.062 807.632 1021.11 795.108 1024.24C619.786 1143.21 396.46 975.19 309.843 939.708Z" fill="#008C44"/>

</g>
<defs>
<filter id="filter0_g_2992_1637" x="-19.5647" y="1.66356" width="864.82" height="862.01" filterUnits="userSpaceOnUse" color-interpolation-filters="sRGB">
<feFlood flood-opacity="0" result="BackgroundImageFix"/>
<feBlend mode="normal" in="SourceGraphic" in2="BackgroundImageFix" result="shape"/>
<feTurbulence type="fractalNoise" baseFrequency="0.87278091907501221 0.87278091907501221" numOctaves="3" seed="4837" />
<feDisplacementMap in="shape" scale="2.2915258407592773" xChannelSelector="R" yChannelSelector="G" result="displacedImage" width="100%" height="100%" />
<feMerge result="effect1_texture_2992_1637">
<feMergeNode in="displacedImage"/>
</feMerge>
</filter>
<clipPath id="clip0_2992_1637">
<rect width="824" height="835.992" fill="white"/>
</clipPath>
<clipPath id="clip1_2992_1637">
<rect width="824" height="865.337" fill="white"/>
</clipPath>
</defs>
</svg>
