<svg width="824" height="836" viewBox="0 0 824 836" fill="none" xmlns="http://www.w3.org/2000/svg">
<g clip-path="url(#clip0_2992_1637)">
<g clip-path="url(#clip1_2992_1637)">
</g>
<rect width="824" height="865.337" stroke="#005E1F" stroke-width="1.40477"/>
<path d="M738.793 154.951C718.715 134.673 689.279 122.383 663.222 122.224C639.029 122.09 608.082 124.525 590.027 146.874C612.853 163.465 642.301 172.796 669.052 174.944C693.098 176.879 723.29 178.745 744.908 162.304C769.374 146.395 770.251 114.482 768.367 91.4916C765.782 59.7142 742.582 26.2033 713.754 6.91113C695.071 26.9107 700.911 58.5504 705.209 80.861C710.083 106.265 722.026 133.091 738.793 154.951Z" fill="#008C44"/>
<path d="M735.816 198.72C760.329 203.559 785.481 221.297 799.755 244.727C788.782 219.745 783.941 191.021 785.458 165.434C786.841 142.029 789.149 110.196 811.517 93.9474C834.517 119.019 847.667 156.456 842.775 187.382C839.088 210.8 830.964 241.709 803.986 253.175C780.18 265.434 751.611 258.302 728.771 251.901C704.201 245.013 678.26 230.436 660.828 209.89C682.443 191.418 712.332 194.083 735.816 198.72Z" fill="#008C44"/>
<path d="M837.622 345.184C829.347 319.643 809.335 297.032 786.837 287.642C765.172 278.578 737.001 270.758 712.76 284.99C724.408 309.39 747.348 327.297 768.023 339.13C787.28 350.154 814.691 362.163 839.904 354.281C866.649 347.258 884.029 321.086 891.703 296.065C901.56 263.878 899.67 227.516 883.268 197.657C858.026 209.827 848.652 240.603 841.884 263.733C834.585 288.676 832.649 318.041 837.622 345.184Z" fill="#008C44"/>
<path d="M811.49 383.659C834.423 402.207 849.635 429.736 851.679 459.102C853.731 427.008 864.384 396.987 876.934 368.026C888.343 341.7 907.859 310.591 937.496 301.414C947.822 338.524 942.869 384.09 922.776 415.443C906.623 440.633 885.561 467.868 851.423 469.921C823.654 472.302 797.536 455.056 778.185 437.146C757.702 418.198 738.906 394.177 731.938 366.467C759.269 356.946 789.562 365.918 811.49 383.659Z" fill="#008C44"/>
<path d="M837.695 576.897C842.432 546.894 834.641 515.542 816.142 491.167C798.615 468.081 770.074 452.663 740.653 457.156C740.985 486.884 753.838 515.823 769.618 540.205C784.248 562.752 806.023 586.937 834.502 590.326C870.06 595.361 897.642 570.407 919.398 547.945C947.474 518.97 963.544 472.292 962.082 430.601C927.926 434.639 904.448 464.069 885.403 488.278C865.708 513.324 847.454 544.594 837.695 576.897Z" fill="#008C44"/>
<path d="M732.024 647.626C740.114 674.376 754.649 706.378 783.044 716.972C818.853 731.011 854.606 709.052 881.37 690.332C917.31 665.193 949.434 618.456 957.048 572.097C920.931 569.216 890.12 595.38 865.197 616.553L863.757 617.771C835.937 641.391 808.547 671.578 789.176 704.678C802.649 673.863 805.608 636.235 792.708 605.472C781.179 577.944 756.25 554.171 725.008 552.662C717.762 583.945 722.946 617.576 732.024 647.626Z" fill="#008C44"/>
<path d="M793.708 842.496C762.032 856.017 717.282 871.738 685.078 847.254L684.63 846.921C658.226 825.856 657.993 787.39 658.637 758.554C659.404 724.274 664.867 687.225 681.914 654.7C717.078 665.089 728.733 697.398 733.449 727.917C739.039 764.217 720.421 805.715 695.353 835.879C726.303 805.217 763.18 778.557 800.732 758.654L804.55 756.626C834.701 740.59 873.943 719.721 908.931 731.285C885.856 779.976 840.991 822.311 793.708 842.496Z" fill="#008C44"/>
<path d="M626.878 954.099C589.619 949.912 538.797 940.793 521.43 900.323L521.184 899.767C507.476 865.648 527.893 829.088 543.974 802.12C563.093 770.06 588.146 737.898 621.743 716.237C649.478 744.944 643.182 781.801 631.274 813.239C617.093 850.622 577.193 879.939 537.265 895.062C583.032 882.624 632.266 877.157 678.515 878.452L683.219 878.58C720.382 879.567 768.75 880.855 795.686 910.58C747.705 944.32 682.495 960.349 626.878 954.099Z" fill="#008C44"/>
<path d="M516.471 939.708C497.685 933.447 487.25 915.706 485.163 902.139C281.664 1014.85 184.613 1080.59 37.466 989.8C18.6832 996.062 18.6814 1021.11 31.2056 1024.24C206.528 1143.21 429.854 975.19 516.471 939.708Z" fill="#008C44"/>
<path d="M197.37 33.3673C171.209 49.6427 143.212 71.6525 136.637 105.83C168.649 102.771 199.848 88.2517 226.674 72.1219C253.686 55.8859 282 38.4366 300.973 11.9513C265.184 5.65475 226.171 15.4494 197.37 33.3673Z" fill="#008C44"/>
<path d="M627.851 33.3674C654.011 49.6428 682.008 71.6525 688.583 105.831C656.571 102.771 625.372 88.2517 598.546 72.1219C571.535 55.886 543.22 38.4367 524.247 11.9514C560.036 5.6548 599.049 15.4495 627.851 33.3674Z" fill="#008C44"/>
<path d="M87.5205 154.951C107.598 134.673 137.035 122.383 163.092 122.224C187.285 122.09 218.231 124.525 236.287 146.874C213.461 163.465 184.013 172.796 157.262 174.944C133.215 176.879 103.024 178.745 81.4058 162.304C56.9395 146.395 56.0629 114.482 57.9466 91.4916C60.5314 59.7142 83.732 26.2033 112.56 6.91113C131.243 26.9107 125.403 58.5504 121.105 80.861C116.231 106.265 104.287 133.091 87.5205 154.951Z" fill="#008C44"/>
<path d="M90.4975 198.72C65.9844 203.559 40.833 221.297 26.5585 244.727C37.5316 219.745 42.3728 191.021 40.8554 165.434C39.4727 142.029 37.1646 110.196 14.7962 93.9474C-8.2036 119.019 -21.353 156.456 -16.4615 187.382C-12.7742 210.8 -4.65018 241.709 22.328 253.175C46.1338 265.434 74.7028 258.302 97.5428 251.901C122.113 245.013 148.054 230.436 165.485 209.89C143.87 191.418 113.981 194.083 90.4975 198.72Z" fill="#008C44"/>
<path d="M-11.3085 345.184C-3.03369 319.643 16.9782 297.032 39.4765 287.642C61.1414 278.578 89.3123 270.758 113.553 284.99C101.906 309.39 78.9652 327.297 58.2901 339.13C39.0331 350.154 11.6221 362.163 -13.5909 354.281C-40.3356 347.258 -57.7149 321.086 -65.3895 296.065C-75.2465 263.878 -73.3569 227.516 -56.9541 197.657C-31.7124 209.827 -22.3387 240.603 -15.5701 263.733C-8.27173 288.676 -6.33525 318.041 -11.3085 345.184Z" fill="#008C44"/>
<path d="M14.8237 383.659C-8.1093 402.207 -23.3216 429.736 -25.3655 459.102C-27.4182 427.008 -38.0709 396.987 -50.6209 368.026C-62.0294 341.7 -81.5461 310.591 -111.183 301.414C-121.508 338.524 -116.555 384.09 -96.463 415.443C-80.3095 440.633 -59.2476 467.868 -25.1093 469.921C2.65915 472.302 28.7776 455.056 48.1282 437.146C68.6109 418.198 87.4072 394.177 94.3751 366.467C67.0439 356.946 36.751 365.918 14.8237 383.659Z" fill="#008C44"/>
<path d="M-11.3811 576.897C-16.118 546.894 -8.32699 515.542 10.1719 491.167C27.6988 468.081 56.2394 452.663 85.6605 457.156C85.3286 486.884 72.4758 515.823 56.6955 540.205C42.0656 562.752 20.2905 586.937 -8.18797 590.326C-43.746 595.361 -71.329 570.407 -93.0849 547.945C-121.16 518.97 -137.231 472.292 -135.769 430.601C-101.612 434.639 -78.1341 464.069 -59.0897 488.278C-39.3942 513.324 -21.14 544.594 -11.3811 576.897Z" fill="#008C44"/>
<path d="M94.2891 647.626C86.1997 674.376 71.6643 706.378 43.2689 716.972C7.46036 731.011 -28.2931 709.052 -55.0569 690.332C-90.9972 665.193 -123.121 618.456 -130.734 572.097C-94.6173 569.216 -63.8067 595.38 -38.8837 616.553L-37.4442 617.771C-9.62411 641.391 17.7661 671.578 37.1377 704.678C23.6644 673.863 20.705 636.235 33.6051 605.472C45.1343 577.944 70.0628 554.171 101.305 552.662C108.551 583.945 103.367 617.576 94.2891 647.626Z" fill="#008C44"/>
<path d="M32.6058 842.496C64.282 856.017 109.032 871.738 141.236 847.254L141.684 846.921C168.087 825.856 168.32 787.39 167.677 758.554C166.91 724.274 161.447 687.225 144.4 654.7C109.235 665.089 97.5803 697.398 92.865 727.917C87.2751 764.217 105.893 805.715 130.96 835.879C100.01 805.217 63.1335 778.557 25.5816 758.654L21.7634 756.626C-8.3871 740.59 -47.6299 719.721 -82.6172 731.285C-59.5426 779.976 -14.6777 822.311 32.6058 842.496Z" fill="#008C44"/>
<path d="M199.436 954.099C236.694 949.912 287.516 940.793 304.884 900.323L305.129 899.767C318.837 865.648 298.42 829.088 282.339 802.12C263.22 770.06 238.168 737.898 204.57 716.237C176.836 744.944 183.131 781.801 195.039 813.239C209.22 850.622 249.12 879.939 289.048 895.062C243.281 882.624 194.047 877.157 147.799 878.452L143.094 878.58C105.931 879.567 57.5633 880.855 30.6276 910.58C78.6081 944.32 143.818 960.349 199.436 954.099Z" fill="#008C44"/>
<path d="M309.843 939.708C328.628 933.447 339.063 915.706 341.15 902.139C544.65 1014.85 641.701 1080.59 788.848 989.8C807.63 996.062 807.632 1021.11 795.108 1024.24C619.786 1143.21 396.46 975.19 309.843 939.708Z" fill="#008C44"/>
<rect width="402.676" height="148.091" transform="translate(47.0615 671.534)" fill="#F8FFFA"/>
<path d="M406.247 802.683V755.659H417.663V762.907C420.744 758.105 426.09 754.934 432.704 754.934C442.851 754.934 449.737 761.639 449.737 771.877V802.683H438.412V774.505C438.412 768.978 434.878 765.082 429.351 765.082C421.922 765.082 417.663 771.424 417.663 782.025V802.683H406.247Z" fill="#002910"/>
<path d="M337.36 802.682V755.659H348.776V802.682H337.36ZM336.907 748.864V736.904H349.32V748.864H336.907Z" fill="#002910"/>
<path d="M286.168 819.626V755.659H297.584V761.186C300.121 757.471 305.376 754.934 311.537 754.934C324.946 754.934 333.554 764.901 333.554 779.126C333.554 793.441 324.403 803.407 310.721 803.407C305.195 803.407 300.211 801.233 297.584 797.881V819.626H286.168ZM309.453 793.532C316.792 793.532 321.866 787.824 321.866 779.126C321.866 770.518 316.792 764.81 309.453 764.81C301.933 764.81 296.859 770.518 296.859 779.126C296.859 787.824 301.933 793.532 309.453 793.532Z" fill="#002910"/>
<path d="M209.812 802.683V755.659H221.228V762.998C223.765 758.196 228.295 754.934 234.819 754.934C242.248 754.934 247.413 758.105 249.496 763.813C252.033 758.921 257.651 754.934 265.08 754.934C275.138 754.934 281.752 761.458 281.752 770.79V802.683H270.335V773.961C270.335 768.253 267.164 764.629 261.728 764.629C255.114 764.629 251.49 770.337 251.49 778.763V802.683H240.074V773.961C240.074 768.253 236.902 764.629 231.466 764.629C224.943 764.629 221.228 770.428 221.228 778.854V802.683H209.812Z" fill="#002910"/>
<path d="M177.464 803.407C167.95 803.407 161.064 797.699 161.064 789.817C161.064 781.572 167.044 776.498 177.464 775.139L186.887 773.87C189.424 773.508 190.692 772.24 190.692 770.156C190.692 766.713 187.34 763.813 181.813 763.813C176.648 763.813 172.752 766.532 172.39 771.334H161.336C162.423 761.276 170.034 754.934 181.813 754.934C194.226 754.934 202.108 762.001 202.108 773.146V789.726C202.108 792.354 203.105 793.532 205.098 793.532C205.642 793.532 206.185 793.441 206.548 793.35V802.683C205.461 802.954 203.377 803.226 201.112 803.226C196.31 803.226 192.776 800.961 192.232 796.522C190.148 800.689 184.44 803.407 177.464 803.407ZM179.367 794.709C186.705 794.709 190.964 789.454 190.964 782.387V781.028L179.367 782.931C174.746 783.656 172.481 785.83 172.481 789.273C172.481 792.444 175.199 794.709 179.367 794.709Z" fill="#002910"/>
<path d="M113.141 802.682V736.632H124.557V762.907C127.638 758.015 132.984 754.934 139.598 754.934C149.836 754.934 156.722 761.639 156.722 771.877V802.682H145.306V774.595C145.306 768.978 141.772 765.082 136.245 765.082C128.816 765.082 124.557 771.424 124.557 782.115V802.682H113.141Z" fill="#002910"/>
<path d="M79.4979 803.407C62.2831 803.407 47.0615 792.172 47.0615 769.974C47.0615 747.867 62.4643 736.632 79.4979 736.632C94.9913 736.632 106.861 745.149 108.673 760.098H95.8068C94.4477 752.397 87.8335 747.233 79.4073 747.233C68.1724 747.233 59.4743 755.296 59.4743 769.974C59.4743 784.743 68.0818 792.716 79.4073 792.716C88.0148 792.716 94.3571 788.005 95.8068 779.76H108.763C106.407 795.525 94.2665 803.407 79.4979 803.407Z" fill="#002910"/>
<path d="M366.875 755.751C365.571 756.562 364.176 757.658 363.849 759.361C365.444 759.209 366.998 758.485 368.335 757.682C369.681 756.873 371.092 756.003 372.037 754.684C370.254 754.37 368.31 754.858 366.875 755.751Z" fill="#002910"/>
<path d="M361.401 761.809C362.402 760.798 363.869 760.186 365.167 760.178C366.372 760.171 367.914 760.293 368.814 761.406C367.677 762.233 366.209 762.698 364.876 762.805C363.678 762.901 362.174 762.994 361.097 762.175C359.878 761.382 359.834 759.792 359.928 758.647C360.057 757.063 361.213 755.394 362.649 754.432C363.58 755.429 363.289 757.005 363.075 758.117C362.832 759.383 362.237 760.719 361.401 761.809Z" fill="#002910"/>
<path d="M361.55 763.989C360.328 764.231 359.075 765.114 358.364 766.282C358.911 765.037 359.152 763.606 359.076 762.331C359.007 761.165 358.892 759.579 357.778 758.769C356.632 760.018 355.977 761.884 356.221 763.424C356.404 764.591 356.809 766.131 358.153 766.703C359.339 767.314 360.763 766.958 361.901 766.639C363.125 766.296 364.418 765.57 365.286 764.546C364.209 763.626 362.72 763.758 361.55 763.989Z" fill="#002910"/>
<path d="M356.477 771.287C356.89 770.015 357.887 768.888 359.008 768.42C360.087 767.968 361.491 767.579 362.699 768.288C362.118 769.504 360.975 770.396 359.945 770.985C358.986 771.535 357.62 772.133 356.364 771.74C355.031 771.39 354.165 770.086 353.783 768.84C353.292 767.236 353.386 765.424 354.203 763.936C355.461 764.543 355.928 766.076 356.265 767.229C356.629 768.472 356.725 769.935 356.477 771.287Z" fill="#002910"/>
<path d="M357.779 773.204C356.637 774.128 355.879 775.5 355.777 776.963C355.675 775.364 355.144 773.868 354.518 772.425C353.95 771.114 352.978 769.563 351.501 769.106C350.987 770.955 351.233 773.226 352.234 774.788C353.039 776.043 354.089 777.4 355.79 777.502C357.173 777.621 358.475 776.762 359.439 775.869C360.459 774.925 361.396 773.728 361.743 772.348C360.381 771.873 358.872 772.32 357.779 773.204Z" fill="#002910"/>
<path d="M356.474 782.832C356.238 781.337 356.626 779.775 357.548 778.561C358.421 777.411 359.843 776.642 361.309 776.866C361.292 778.347 360.652 779.789 359.866 781.004C359.137 782.128 358.052 783.333 356.633 783.501C354.861 783.752 353.487 782.509 352.403 781.39C351.004 779.946 350.203 777.62 350.276 775.543C351.978 775.744 353.148 777.211 354.097 778.417C355.078 779.665 355.987 781.223 356.474 782.832Z" fill="#002910"/>
<path d="M361.739 786.356C361.336 787.689 360.611 789.284 359.197 789.812C357.412 790.511 355.631 789.417 354.297 788.484C352.507 787.232 350.906 784.903 350.527 782.593C352.326 782.45 353.862 783.753 355.103 784.808L355.175 784.869C356.561 786.046 357.926 787.55 358.891 789.199C358.22 787.664 358.072 785.789 358.715 784.256C359.29 782.884 360.532 781.7 362.088 781.625C362.449 783.183 362.191 784.859 361.739 786.356Z" fill="#002910"/>
<path d="M358.665 796.066C360.244 796.74 362.473 797.523 364.078 796.303L364.1 796.286C365.416 795.237 365.427 793.32 365.395 791.884C365.357 790.175 365.085 788.329 364.236 786.709C362.483 787.227 361.903 788.836 361.668 790.357C361.389 792.166 362.317 794.233 363.566 795.736C362.024 794.209 360.186 792.88 358.315 791.888L358.125 791.787C356.623 790.988 354.668 789.949 352.924 790.525C354.074 792.951 356.309 795.06 358.665 796.066Z" fill="#002910"/>
<path d="M366.978 801.627C368.834 801.418 371.366 800.964 372.232 798.947L372.244 798.92C372.927 797.22 371.91 795.398 371.108 794.054C370.156 792.457 368.908 790.854 367.234 789.775C365.852 791.205 366.165 793.042 366.759 794.608C367.465 796.471 369.453 797.932 371.443 798.685C369.162 798.065 366.709 797.793 364.405 797.857L364.17 797.864C362.319 797.913 359.909 797.977 358.567 799.458C360.957 801.139 364.207 801.938 366.978 801.627Z" fill="#002910"/>
<path d="M372.479 800.91C373.415 800.598 373.935 799.714 374.039 799.038C384.178 804.653 389.014 807.929 396.346 803.405C397.281 803.717 397.281 804.965 396.657 805.121C387.922 811.049 376.795 802.678 372.479 800.91Z" fill="#002910"/>
<path d="M388.378 755.751C389.682 756.562 391.077 757.658 391.404 759.361C389.809 759.209 388.255 758.485 386.918 757.682C385.572 756.873 384.161 756.003 383.216 754.684C384.999 754.37 386.943 754.858 388.378 755.751Z" fill="#002910"/>
<path d="M393.852 761.809C392.851 760.798 391.384 760.186 390.086 760.178C388.881 760.171 387.339 760.293 386.439 761.406C387.576 762.233 389.044 762.698 390.377 762.805C391.575 762.901 393.079 762.994 394.156 762.175C395.375 761.382 395.419 759.792 395.325 758.647C395.196 757.063 394.04 755.394 392.604 754.432C391.673 755.429 391.964 757.005 392.178 758.117C392.421 759.383 393.016 760.719 393.852 761.809Z" fill="#002910"/>
<path d="M393.703 763.989C394.925 764.231 396.178 765.114 396.889 766.282C396.342 765.037 396.101 763.606 396.177 762.331C396.246 761.165 396.361 759.579 397.475 758.769C398.621 760.018 399.276 761.884 399.033 763.424C398.849 764.591 398.444 766.131 397.1 766.703C395.914 767.314 394.49 766.958 393.352 766.639C392.128 766.296 390.835 765.57 389.967 764.546C391.044 763.626 392.533 763.758 393.703 763.989Z" fill="#002910"/>
<path d="M398.776 771.287C398.363 770.015 397.366 768.888 396.245 768.42C395.166 767.968 393.762 767.579 392.554 768.288C393.135 769.504 394.278 770.396 395.308 770.985C396.267 771.535 397.633 772.133 398.889 771.74C400.222 771.39 401.088 770.086 401.47 768.84C401.961 767.236 401.867 765.424 401.05 763.936C399.792 764.543 399.325 766.076 398.988 767.229C398.624 768.472 398.528 769.935 398.776 771.287Z" fill="#002910"/>
<path d="M397.474 773.204C398.616 774.128 399.374 775.5 399.476 776.963C399.578 775.364 400.109 773.868 400.734 772.425C401.303 771.114 402.275 769.563 403.752 769.106C404.267 770.955 404.02 773.226 403.019 774.788C402.214 776.043 401.164 777.4 399.463 777.502C398.08 777.621 396.778 776.762 395.814 775.869C394.794 774.925 393.857 773.728 393.51 772.348C394.872 771.873 396.381 772.32 397.474 773.204Z" fill="#002910"/>
<path d="M398.779 782.832C399.015 781.337 398.627 779.775 397.705 778.561C396.832 777.411 395.41 776.642 393.944 776.866C393.961 778.347 394.601 779.789 395.387 781.004C396.116 782.128 397.201 783.333 398.62 783.501C400.392 783.752 401.766 782.509 402.85 781.39C404.249 779.946 405.05 777.62 404.977 775.543C403.275 775.744 402.105 777.211 401.156 778.417C400.175 779.665 399.266 781.223 398.779 782.832Z" fill="#002910"/>
<path d="M393.514 786.356C393.917 787.689 394.642 789.284 396.056 789.812C397.841 790.511 399.622 789.417 400.956 788.484C402.746 787.232 404.347 784.903 404.726 782.593C402.927 782.45 401.391 783.753 400.15 784.808L400.078 784.869C398.692 786.046 397.327 787.55 396.362 789.199C397.033 787.664 397.181 785.789 396.538 784.256C395.963 782.884 394.721 781.7 393.165 781.625C392.804 783.183 393.062 784.859 393.514 786.356Z" fill="#002910"/>
<path d="M396.588 796.066C395.009 796.74 392.78 797.523 391.175 796.303L391.153 796.286C389.837 795.237 389.826 793.32 389.858 791.884C389.896 790.175 390.168 788.329 391.017 786.709C392.77 787.227 393.35 788.836 393.585 790.357C393.864 792.166 392.936 794.233 391.687 795.736C393.229 794.209 395.067 792.88 396.938 791.888L397.128 791.787C398.63 790.988 400.585 789.949 402.329 790.525C401.179 792.951 398.944 795.06 396.588 796.066Z" fill="#002910"/>
<path d="M388.275 801.627C386.419 801.418 383.887 800.964 383.021 798.947L383.009 798.92C382.326 797.22 383.343 795.398 384.145 794.054C385.097 792.457 386.345 790.854 388.019 789.775C389.401 791.205 389.088 793.042 388.494 794.608C387.788 796.471 385.8 797.932 383.81 798.685C386.091 798.065 388.544 797.793 390.848 797.857L391.083 797.864C392.934 797.913 395.344 797.977 396.686 799.458C394.296 801.139 391.046 801.938 388.275 801.627Z" fill="#002910"/>
<path d="M382.774 800.91C381.838 800.598 381.318 799.714 381.214 799.038C371.075 804.653 366.239 807.929 358.908 803.405C357.972 803.717 357.972 804.965 358.596 805.121C367.331 811.049 378.458 802.678 382.774 800.91Z" fill="#002910"/>
<path d="M78.4061 685.845V690.822C76.1626 687.234 72.6791 685.035 68.3691 685.035C59.1587 685.035 53.9631 691.806 53.9631 700.891C53.9631 710.034 59.2178 717.036 68.4872 717.036C72.7972 717.036 76.2216 714.837 78.4061 711.249V716.225H85.6091V685.845H78.4061ZM69.9042 711.017C64.6496 711.017 61.6385 706.214 61.6385 700.891C61.6385 695.683 64.5905 691.111 70.0223 691.111C74.5094 691.111 78.3471 694.294 78.3471 700.775C78.3471 707.14 74.6865 711.017 69.9042 711.017Z" fill="#002910"/>
<path d="M91.8117 685.848V716.228H99.4871V685.848H91.8117Z" fill="#002910"/>
<path d="M113.634 693.37V685.847H105.959V716.227H113.634V698.867C113.634 694.411 116.763 692.617 119.715 692.617C121.427 692.617 123.199 693.08 124.143 693.428V685.326C119.125 685.326 114.992 688.277 113.634 693.37Z" fill="#002910"/>
<path d="M126.02 695.106C126.02 704.538 132.633 711.251 142.139 711.251C151.703 711.251 158.257 704.538 158.257 695.106C158.257 685.847 151.703 679.25 142.139 679.25C132.633 679.25 126.02 685.847 126.02 695.106ZM150.581 695.106C150.581 701.008 147.334 705.233 142.139 705.233C136.884 705.233 133.696 701.008 133.696 695.106C133.696 689.435 136.884 685.326 142.139 685.326C147.334 685.326 150.581 689.435 150.581 695.106Z" fill="#002910"/>
<path d="M179.66 685.035C175.173 685.035 171.512 687.639 169.564 691.806V685.845H161.889V726.352H169.564V710.786C171.749 714.547 175.822 717.036 180.132 717.036C188.516 717.036 194.361 710.612 194.361 701.411C194.361 691.748 188.28 685.035 179.66 685.035ZM178.302 711.365C173.166 711.365 169.564 707.14 169.564 701.122C169.564 694.93 173.166 690.59 178.302 690.59C183.202 690.59 186.686 695.046 186.686 701.354C186.686 707.256 183.202 711.365 178.302 711.365Z" fill="#002910"/>
<path d="M196.819 705.694C196.819 711.191 201.779 717.036 211.698 717.036C221.676 717.036 225.277 711.307 225.277 706.851C225.277 700.023 217.071 698.807 211.58 697.766C207.86 697.129 205.498 696.608 205.498 694.525C205.498 692.153 208.155 690.648 210.989 690.648C214.827 690.648 216.303 693.252 216.421 696.03H224.096C224.096 691.516 220.849 685.035 210.812 685.035C202.133 685.035 197.823 689.838 197.823 694.988C197.823 702.337 206.148 703.09 211.639 704.131C214.827 704.71 217.602 705.404 217.602 707.661C217.602 709.918 214.886 711.423 211.993 711.423C209.277 711.423 204.495 709.918 204.495 705.694H196.819Z" fill="#002910"/>
<path d="M95.779 682.143C92.6277 682.143 90.3669 679.927 90.3669 676.906C90.3669 673.884 92.6277 671.534 95.779 671.534C98.7933 671.534 101.191 673.884 101.191 676.906C101.191 679.927 98.7933 682.143 95.779 682.143Z" fill="#002910"/>
</g>
<defs>
<filter id="filter0_g_2992_1637" x="-19.5647" y="1.66356" width="864.82" height="862.01" filterUnits="userSpaceOnUse" color-interpolation-filters="sRGB">
<feFlood flood-opacity="0" result="BackgroundImageFix"/>
<feBlend mode="normal" in="SourceGraphic" in2="BackgroundImageFix" result="shape"/>
<feTurbulence type="fractalNoise" baseFrequency="0.87278091907501221 0.87278091907501221" numOctaves="3" seed="4837" />
<feDisplacementMap in="shape" scale="2.2915258407592773" xChannelSelector="R" yChannelSelector="G" result="displacedImage" width="100%" height="100%" />
<feMerge result="effect1_texture_2992_1637">
<feMergeNode in="displacedImage"/>
</feMerge>
</filter>
<clipPath id="clip0_2992_1637">
<rect width="824" height="835.992" fill="white"/>
</clipPath>
<clipPath id="clip1_2992_1637">
<rect width="824" height="865.337" fill="white"/>
</clipPath>
</defs>
</svg>
